Normalized EMG Linear Envelopes
nRows=145
nColumns=4

endheader
time	 med_gas_r	  soleus_r	 tib_ant_r	
4.36565	  0.019385	  0.027230	  0.014258	
4.43722	  0.020090	  0.025249	  0.013908	
4.50878	  0.020431	  0.024125	  0.013197	
4.58035	  0.020307	  0.023995	  0.011834	
4.65192	  0.020068	  0.024444	  0.009974	
4.72349	  0.020222	  0.025131	  0.009068	
4.79506	  0.021028	  0.026058	  0.012639	
4.86662	  0.022525	  0.027487	  0.025251	
4.93819	  0.024481	  0.029600	  0.047910	
5.00976	  0.026079	  0.031877	  0.073200	
5.08133	  0.026277	  0.033129	  0.089168	
5.1529	  0.025049	  0.032800	  0.092693	
5.22446	  0.023718	  0.031990	  0.095176	
5.29603	  0.024060	  0.032746	  0.110850	
5.3676	  0.027939	  0.036183	  0.141763	
5.43917	  0.036756	  0.041533	  0.174762	
5.51074	  0.049186	  0.047108	  0.194685	
5.5823	  0.060936	  0.051486	  0.200100	
5.65387	  0.068891	  0.053722	  0.199413	
5.72544	  0.072326	  0.053403	  0.198216	
5.79701	  0.070589	  0.051056	  0.199797	
5.86858	  0.065476	  0.047935	  0.207194	
5.94014	  0.061301	  0.044839	  0.217566	
6.01171	  0.059226	  0.042011	  0.223106	
6.08328	  0.058207	  0.040105	  0.222046	
6.15485	  0.058406	  0.039904	  0.223213	
6.22642	  0.059232	  0.041257	  0.235753	
6.29798	  0.058903	  0.043075	  0.258027	
6.36955	  0.056453	  0.044580	  0.279093	
6.44112	  0.052884	  0.045981	  0.289791	
6.51269	  0.051387	  0.047196	  0.289062	
6.58426	  0.055092	  0.047555	  0.279339	
6.65582	  0.064789	  0.047538	  0.262310	
6.72739	  0.080369	  0.048710	  0.239453	
6.79896	  0.102431	  0.052048	  0.213221	
6.87053	  0.127793	  0.057168	  0.189779	
6.9421	  0.144562	  0.062604	  0.181811	
7.01366	  0.142823	  0.067818	  0.207229	
7.08523	  0.131042	  0.074250	  0.277438	
7.1568	  0.126670	  0.082442	  0.377765	
7.22837	  0.132120	  0.090025	  0.466453	
7.29994	  0.135422	  0.093822	  0.505775	
7.3715	  0.130931	  0.092691	  0.491979	
7.44307	  0.124731	  0.088487	  0.451339	
7.51464	  0.121047	  0.084942	  0.415751	
7.58621	  0.118039	  0.084836	  0.405375	
7.65778	  0.116381	  0.086612	  0.423290	
7.72934	  0.119034	  0.085614	  0.457948	
7.80091	  0.125374	  0.080790	  0.490571	
7.87248	  0.131381	  0.075592	  0.505561	
7.94405	  0.131935	  0.071689	  0.504925	
8.01562	  0.125846	  0.068100	  0.506177	
8.08718	  0.118585	  0.065146	  0.513773	
8.15875	  0.115541	  0.064583	  0.511330	
8.23032	  0.118407	  0.067147	  0.491320	
8.30189	  0.126166	  0.071533	  0.470378	
8.37346	  0.132831	  0.075515	  0.469282	
8.44502	  0.132212	  0.077884	  0.489695	
8.51659	  0.125813	  0.079061	  0.515382	
8.58816	  0.118045	  0.079991	  0.531554	
8.65973	  0.109509	  0.080113	  0.536434	
8.7313	  0.100832	  0.077581	  0.536794	
8.80286	  0.096938	  0.072985	  0.537004	
8.87443	  0.101863	  0.070247	  0.534953	
8.946	  0.111837	  0.072124	  0.530312	
9.01757	  0.119683	  0.077411	  0.530933	
9.08914	  0.122328	  0.083035	  0.544368	
9.1607	  0.119721	  0.086473	  0.564619	
9.23227	  0.114665	  0.086671	  0.576013	
9.30384	  0.112333	  0.084180	  0.572293	
9.37541	  0.112880	  0.080212	  0.563181	
9.44698	  0.112778	  0.075925	  0.557757	
9.51854	  0.113123	  0.072889	  0.550644	
9.59011	  0.114961	  0.072977	  0.533617	
9.66168	  0.113713	  0.076445	  0.513653	
9.73325	  0.108019	  0.080442	  0.509502	
9.80482	  0.103098	  0.081084	  0.529462	
9.87638	  0.101172	  0.077169	  0.557633	
9.94795	  0.100883	  0.071060	  0.566475	
10.0195	  0.103282	  0.066864	  0.543664	
10.0911	  0.109072	  0.068342	  0.506951	
10.1627	  0.117489	  0.077097	  0.488226	
10.2342	  0.127923	  0.091311	  0.504192	
10.3058	  0.136281	  0.105103	  0.546825	
10.3774	  0.136615	  0.110924	  0.591978	
10.4489	  0.128373	  0.107188	  0.616967	
10.5205	  0.119224	  0.100461	  0.610865	
10.5921	  0.121224	  0.094502	  0.554690	
10.6636	  0.140089	  0.085380	  0.426515	
10.7352	  0.166578	  0.071813	  0.257149	
10.8068	  0.183774	  0.058760	  0.122739	
10.8783	  0.186980	  0.050436	  0.060644	
10.9499	  0.188922	  0.048027	  0.044798	
11.0215	  0.199144	  0.050399	  0.038328	
11.093	  0.211642	  0.054151	  0.029201	
11.1646	  0.217112	  0.056298	  0.021140	
11.2362	  0.215853	  0.056906	  0.016865	
11.3077	  0.216431	  0.057888	  0.015484	
11.3793	  0.220954	  0.059730	  0.015687	
11.4509	  0.219490	  0.061132	  0.016511	
11.5224	  0.207567	  0.061468	  0.017235	
11.594	  0.193546	  0.061258	  0.017692	
11.6656	  0.185015	  0.060688	  0.018009	
11.7372	  0.182280	  0.059087	  0.018079	
11.8087	  0.181619	  0.055998	  0.017824	
11.8803	  0.178434	  0.052479	  0.017501	
11.9519	  0.171151	  0.050653	  0.017307	
12.0234	  0.162037	  0.051800	  0.017141	
12.095	  0.154414	  0.054768	  0.016819	
12.1666	  0.150529	  0.056462	  0.016281	
12.2381	  0.149806	  0.055066	  0.015618	
12.3097	  0.149639	  0.052029	  0.014893	
12.3813	  0.149151	  0.049877	  0.014148	
12.4528	  0.149937	  0.049705	  0.013635	
12.5244	  0.151401	  0.050608	  0.013590	
12.596	  0.149879	  0.050468	  0.013895	
12.6675	  0.144756	  0.048359	  0.014338	
12.7391	  0.138057	  0.045511	  0.014741	
12.8107	  0.130637	  0.043373	  0.014804	
12.8822	  0.124833	  0.042311	  0.014411	
12.9538	  0.122271	  0.041736	  0.013843	
13.0254	  0.119792	  0.040731	  0.013378	
13.0969	  0.115301	  0.039058	  0.013117	
13.1685	  0.110713	  0.037222	  0.013097	
13.2401	  0.106280	  0.035864	  0.013161	
13.3116	  0.099154	  0.035306	  0.013061	
13.3832	  0.089050	  0.035120	  0.012831	
13.4548	  0.081250	  0.034591	  0.012718	
13.5264	  0.080005	  0.033761	  0.012798	
13.5979	  0.082625	  0.033380	  0.012942	
13.6695	  0.084514	  0.034192	  0.013111	
13.7411	  0.085779	  0.036753	  0.013346	
13.8126	  0.089761	  0.041057	  0.013547	
13.8842	  0.095187	  0.044997	  0.013577	
13.9558	  0.094553	  0.044920	  0.013441	
14.0273	  0.084989	  0.039991	  0.013195	
14.0989	  0.071935	  0.033480	  0.012937	
14.1705	  0.060372	  0.028674	  0.012859	
14.242	  0.052424	  0.026429	  0.013008	
14.3136	  0.048316	  0.026014	  0.013128	
14.3852	  0.044286	  0.026200	  0.012961	
14.4567	  0.037385	  0.026187	  0.012588	
14.5283	  0.030723	  0.026055	  0.012294	
14.5999	  0.028292	  0.026180	  0.012227	
14.6714	  0.029483	  0.026597	  0.012322	
